<svg width="50" height="50" viewBox="0 0 50 50" fill="none" xmlns="http://www.w3.org/2000/svg">
<path fill-rule="evenodd" clip-rule="evenodd" d="M24.5924 49.9967L24.9999 50C24.448 49.9999 23.8962 49.9819 23.3455 49.9461C22.6639 49.9015 21.9845 49.8291 21.3088 49.7293C20.5238 49.613 19.7448 49.4594 18.9745 49.269C18.2152 49.0811 17.4651 48.8574 16.7269 48.5987L16.7228 48.5971C15.507 48.1707 14.3263 47.6504 13.1913 47.0409C12.3858 46.6084 11.6046 46.132 10.8513 45.6138C10.0042 45.0313 9.19375 44.3973 8.42449 43.7154C8.15571 43.4771 7.89205 43.2332 7.6337 42.9838C2.92687 38.4374 0 32.0605 0 24.9999C0 11.1929 11.1929 2.74683e-10 24.9999 2.74683e-10C28.283 -1.5389e-05 31.5339 0.646616 34.567 1.90297C37.6002 3.15933 40.3562 5.00081 42.6776 7.32227C44.9991 9.64373 46.8406 12.3997 48.097 15.4329C49.3534 18.466 50 21.7169 50 24.9999C50 32.0607 47.0729 38.4378 42.3659 42.984C42.3658 42.9843 42.3658 42.9848 42.3659 42.9854C41.1818 44.1284 39.8883 45.1523 38.5041 46.0426L38.4848 46.0549C38.1709 46.2565 37.8525 46.451 37.5297 46.6381L37.4956 46.6581C36.931 46.9843 36.3538 47.2885 35.7655 47.5698C35.5352 47.6795 35.3033 47.7859 35.07 47.889C34.8265 47.996 34.5815 48.0993 34.335 48.1989C34.0959 48.295 33.8555 48.3875 33.6137 48.4764C33.3693 48.5659 33.1235 48.6517 32.8766 48.7339C32.6338 48.8142 32.3898 48.8909 32.1447 48.9641C31.8851 49.0412 31.6242 49.1143 31.3623 49.1832C31.1073 49.25 30.8514 49.3128 30.5945 49.3716C30.3381 49.4301 30.0809 49.4846 29.8229 49.5351C28.7712 49.7407 27.7073 49.8783 26.6379 49.9471C26.3721 49.9644 26.106 49.9774 25.8398 49.9862L25.8347 49.9863C25.4207 49.9999 25.0065 50.0034 24.5924 49.9967ZM27.5 35H22.5C18.5176 35 15.0347 37.3434 13.4335 40.7699L13.2525 41.1849L13.4092 41.3008C16.2587 43.3305 19.6631 44.6319 23.3506 44.9329C23.4607 44.9419 23.571 44.95 23.6816 44.9572L23.3659 44.9341C23.4733 44.9429 23.581 44.9507 23.6888 44.9577L23.6816 44.9572C23.7885 44.9642 23.8955 44.9704 24.0027 44.9756L23.6888 44.9577C23.8002 44.9649 23.9118 44.9712 24.0238 44.9765L24.0027 44.9756C24.0831 44.9795 24.1635 44.9829 24.2438 44.9859L24.9999 45L25.3134 44.9976C25.4287 44.9959 25.5439 44.9931 25.6591 44.9894L25.3427 44.997C25.4494 44.9953 25.5558 44.9927 25.6621 44.9892L25.6591 44.9893C25.7662 44.9859 25.8732 44.9816 25.98 44.9764L25.6621 44.9892C25.7722 44.9855 25.8823 44.9811 25.9924 44.9757L25.98 44.9764C26.0912 44.9709 26.2022 44.9647 26.3128 44.9577L25.9924 44.9757C26.1008 44.9705 26.209 44.9643 26.317 44.9573L26.3129 44.9575C26.4212 44.9505 26.5292 44.9427 26.637 44.934L26.3169 44.9573C26.427 44.9501 26.5371 44.9421 26.647 44.9332L26.637 44.934C26.7417 44.9254 26.8462 44.9161 26.9504 44.9061L26.647 44.9332C26.7564 44.9243 26.8655 44.9144 26.9744 44.9038L26.9504 44.9061C30.5148 44.5611 33.8054 43.2805 36.5737 41.3129L36.7449 41.1849L36.5666 40.7703C35.0355 37.4928 31.7822 35.2058 28.0166 35.0131L27.5 35ZM24.9999 5.00003C13.9543 5.00003 5.00003 13.9543 5.00003 24.9999C5.00003 29.7699 6.66984 34.1499 9.45679 37.587C12.0382 33.0552 16.9123 30 22.5 30H27.5C33.0879 30 37.962 33.0554 40.543 37.5867C43.33 34.1499 45 29.7699 45 24.9999C45 13.9543 36.0457 5.00003 24.9999 5.00003ZM24.9999 7.49999C30.5229 7.49999 35 11.9771 35 17.4999C35 22.8554 30.7901 27.2277 25.499 27.4878L24.9999 27.5C19.4771 27.5 15 23.0229 15 17.4999C15 12.1445 19.2099 7.77222 24.5008 7.51218L24.9999 7.49999ZM24.9999 12.5C22.2385 12.5 20 14.7385 20 17.4999C20 20.2614 22.2385 22.5 24.9999 22.5C27.7613 22.5 30 20.2614 30 17.4999C30 14.7385 27.7613 12.5 24.9999 12.5Z" fill="white"/>
</svg>
